<svg version="1.1" xmlns="http://www.w3.org/2000/svg" viewBox="0 0 1040 351.5" width="1040" height="351.5" filter="invert(93%) hue-rotate(180deg)" class="excalidraw-svg">
  <!-- svg-source:excalidraw -->
  
  <defs>
    <style class="style-fonts">
      
    </style>
    
  </defs>
  <rect x="0" y="0" width="1040" height="351.5" fill="#ffffff"></rect><g stroke-linecap="round"><g transform="translate(90 201.5) rotate(0 430 0)"><path d="M0 0 C143.33 0, 716.67 0, 860 0 M0 0 C143.33 0, 716.67 0, 860 0" stroke="#1e1e1e" stroke-width="4" fill="none"></path></g><g transform="translate(90 201.5) rotate(0 430 0)"><path d="M860 0 L846.41 6.34 L846.41 -6.34 L860 0" stroke="none" stroke-width="0" fill="#1e1e1e" fill-rule="evenodd"></path><path d="M860 0 C855.05 2.31, 850.11 4.61, 846.41 6.34 M860 0 C855.25 2.21, 850.5 4.43, 846.41 6.34 M846.41 6.34 C846.41 3.62, 846.41 0.9, 846.41 -6.34 M846.41 6.34 C846.41 3.78, 846.41 1.23, 846.41 -6.34 M846.41 -6.34 C850.48 -4.44, 854.55 -2.54, 860 0 M846.41 -6.34 C850.93 -4.23, 855.45 -2.12, 860 0 M860 0 C860 0, 860 0, 860 0 M860 0 C860 0, 860 0, 860 0" stroke="#1e1e1e" stroke-width="4" fill="none"></path></g></g><mask></mask><g stroke-linecap="round" transform="translate(50 81.5) rotate(0 110 40)"><path d="M0 0 C75.96 0, 151.92 0, 220 0 M0 0 C69.77 0, 139.54 0, 220 0 M220 0 C220 27.26, 220 54.53, 220 80 M220 0 C220 30.79, 220 61.59, 220 80 M220 80 C142.47 80, 64.94 80, 0 80 M220 80 C175.89 80, 131.78 80, 0 80 M0 80 C0 60.83, 0 41.65, 0 0 M0 80 C0 49.37, 0 18.74, 0 0" stroke="#1e1e1e" stroke-width="2" fill="none"></path></g><g transform="translate(56.5234375 103.1) rotate(0 103.4765625 18.4)"><text x="103.4765625" y="13.5203125" font-family="Helvetica, Segoe UI Emoji" font-size="16px" fill="#1e1e1e" text-anchor="middle" style="white-space: pre;" direction="ltr" dominant-baseline="alphabetic">Compromise of Domain User</text><text x="103.4765625" y="31.920312499999998" font-family="Helvetica, Segoe UI Emoji" font-size="16px" fill="#1e1e1e" text-anchor="middle" style="white-space: pre;" direction="ltr" dominant-baseline="alphabetic">Account</text></g><g stroke-linecap="round"><g transform="translate(160 161.5) rotate(0 0 20)"><path d="M0 0 C0 9.77, 0 19.53, 0 40 M0 0 C0 12.93, 0 25.85, 0 40" stroke="#1e1e1e" stroke-width="2" fill="none"></path></g></g><mask></mask><g stroke-linecap="round" transform="translate(170 241.5) rotate(0 110 40)"><path d="M0 0 C63.31 0, 126.61 0, 220 0 M0 0 C80.13 0, 160.27 0, 220 0 M220 0 C220 26.74, 220 53.49, 220 80 M220 0 C220 29.61, 220 59.22, 220 80 M220 80 C168.01 80, 116.02 80, 0 80 M220 80 C170.03 80, 120.06 80, 0 80 M0 80 C0 62.79, 0 45.58, 0 0 M0 80 C0 60.66, 0 41.32, 0 0" stroke="#1e1e1e" stroke-width="2" fill="none"></path></g><g transform="translate(194.6015625 263.1) rotate(0 85.3984375 18.39999999999999)"><text x="85.3984375" y="13.5203125" font-family="Helvetica, Segoe UI Emoji" font-size="16px" fill="#1e1e1e" text-anchor="middle" style="white-space: pre;" direction="ltr" dominant-baseline="alphabetic">Kerberos Service Ticket</text><text x="85.3984375" y="31.920312499999998" font-family="Helvetica, Segoe UI Emoji" font-size="16px" fill="#1e1e1e" text-anchor="middle" style="white-space: pre;" direction="ltr" dominant-baseline="alphabetic">Requested from TGS</text></g><g stroke-linecap="round"><g transform="translate(280 241.5) rotate(0 0 -20)"><path d="M0 0 C0 -12.82, 0 -25.64, 0 -40 M0 0 C0 -16, 0 -31.99, 0 -40" stroke="#1e1e1e" stroke-width="2" fill="none"></path></g></g><mask></mask><g stroke-linecap="round" transform="translate(290 81.5) rotate(0 110 40)"><path d="M0 0 C52.8 0, 105.59 0, 220 0 M0 0 C50.76 0, 101.51 0, 220 0 M220 0 C220 22.97, 220 45.94, 220 80 M220 0 C220 16.37, 220 32.74, 220 80 M220 80 C132.58 80, 45.17 80, 0 80 M220 80 C151.02 80, 82.03 80, 0 80 M0 80 C0 52.27, 0 24.54, 0 0 M0 80 C0 61.26, 0 42.53, 0 0" stroke="#1e1e1e" stroke-width="2" fill="none"></path></g><g transform="translate(300.64453125 93.9) rotate(0 99.35546875 27.599999999999994)"><text x="99.35546875" y="13.5203125" font-family="Helvetica, Segoe UI Emoji" font-size="16px" fill="#1e1e1e" text-anchor="middle" style="white-space: pre;" direction="ltr" dominant-baseline="alphabetic">Ticket Received &amp; Captured</text><text x="99.35546875" y="31.920312499999998" font-family="Helvetica, Segoe UI Emoji" font-size="16px" fill="#1e1e1e" text-anchor="middle" style="white-space: pre;" direction="ltr" dominant-baseline="alphabetic">for Offline</text><text x="99.35546875" y="50.3203125" font-family="Helvetica, Segoe UI Emoji" font-size="16px" fill="#1e1e1e" text-anchor="middle" style="white-space: pre;" direction="ltr" dominant-baseline="alphabetic">Bruteforce/Cracking</text></g><g stroke-linecap="round"><g transform="translate(400 161.5) rotate(0 0 20)"><path d="M0 0 C0 10.12, 0 20.24, 0 40 M0 0 C0 15.74, 0 31.47, 0 40" stroke="#1e1e1e" stroke-width="2" fill="none"></path></g></g><mask></mask><g stroke-linecap="round" transform="translate(530 81.5) rotate(0 110 40)"><path d="M0 0 C50.44 0, 100.87 0, 220 0 M0 0 C51.5 0, 103 0, 220 0 M220 0 C220 26.64, 220 53.28, 220 80 M220 0 C220 22.5, 220 45.01, 220 80 M220 80 C152.31 80, 84.62 80, 0 80 M220 80 C159.92 80, 99.84 80, 0 80 M0 80 C0 60.05, 0 40.11, 0 0 M0 80 C0 54.41, 0 28.83, 0 0" stroke="#1e1e1e" stroke-width="2" fill="none"></path></g><g transform="translate(545.28515625 103.1) rotate(0 94.71484375 18.4)"><text x="94.71484375" y="13.5203125" font-family="Helvetica, Segoe UI Emoji" font-size="16px" fill="#1e1e1e" text-anchor="middle" style="white-space: pre;" direction="ltr" dominant-baseline="alphabetic">Threat Actor Authenticates</text><text x="94.71484375" y="31.920312499999998" font-family="Helvetica, Segoe UI Emoji" font-size="16px" fill="#1e1e1e" text-anchor="middle" style="white-space: pre;" direction="ltr" dominant-baseline="alphabetic">as Service Account </text></g><g stroke-linecap="round"><g transform="translate(640 161.5) rotate(0 0 20)"><path d="M0 0 C0 12.32, 0 24.65, 0 40 M0 0 C0 15.06, 0 30.12, 0 40" stroke="#1e1e1e" stroke-width="2" fill="none"></path></g></g><mask></mask><g stroke-linecap="round" transform="translate(410 241.5) rotate(0 110 40)"><path d="M0 0 C70.46 0, 140.91 0, 220 0 M0 0 C57.56 0, 115.11 0, 220 0 M220 0 C220 28.15, 220 56.29, 220 80 M220 0 C220 26.57, 220 53.14, 220 80 M220 80 C132.75 80, 45.5 80, 0 80 M220 80 C175.26 80, 130.51 80, 0 80 M0 80 C0 49.7, 0 19.4, 0 0 M0 80 C0 55.39, 0 30.78, 0 0" stroke="#1e1e1e" stroke-width="2" fill="none"></path></g><g transform="translate(428.80078125 263.1) rotate(0 91.19921875 18.39999999999999)"><text x="91.19921875" y="13.5203125" font-family="Helvetica, Segoe UI Emoji" font-size="16px" fill="#1e1e1e" text-anchor="middle" style="white-space: pre;" direction="ltr" dominant-baseline="alphabetic">SPN Credentials Cracked</text><text x="91.19921875" y="31.920312499999998" font-family="Helvetica, Segoe UI Emoji" font-size="16px" fill="#1e1e1e" text-anchor="middle" style="white-space: pre;" direction="ltr" dominant-baseline="alphabetic">from Capture Ticket</text></g><g stroke-linecap="round"><g transform="translate(520 241.5) rotate(0 0 -20)"><path d="M0 0 C0 -15.4, 0 -30.81, 0 -40 M0 0 C0 -9.47, 0 -18.94, 0 -40" stroke="#1e1e1e" stroke-width="2" fill="none"></path></g></g><mask></mask><g stroke-linecap="round" transform="translate(650 241.5) rotate(0 110 42)"><path d="M0 0 C83.68 0, 167.35 0, 220 0 M0 0 C57.26 0, 114.51 0, 220 0 M220 0 C220 28.47, 220 56.95, 220 84 M220 0 C220 28.72, 220 57.44, 220 84 M220 84 C152.77 84, 85.55 84, 0 84 M220 84 C170.91 84, 121.82 84, 0 84 M0 84 C0 52.9, 0 21.79, 0 0 M0 84 C0 66.03, 0 48.07, 0 0" stroke="#1e1e1e" stroke-width="2" fill="none"></path></g><g transform="translate(672.359375 246.7) rotate(0 87.640625 36.8)"><text x="87.640625" y="13.5203125" font-family="Helvetica, Segoe UI Emoji" font-size="16px" fill="#1e1e1e" text-anchor="middle" style="white-space: pre;" direction="ltr" dominant-baseline="alphabetic">Access granted to all</text><text x="87.640625" y="31.920312499999998" font-family="Helvetica, Segoe UI Emoji" font-size="16px" fill="#1e1e1e" text-anchor="middle" style="white-space: pre;" direction="ltr" dominant-baseline="alphabetic">Services, Networks, &amp;</text><text x="87.640625" y="50.3203125" font-family="Helvetica, Segoe UI Emoji" font-size="16px" fill="#1e1e1e" text-anchor="middle" style="white-space: pre;" direction="ltr" dominant-baseline="alphabetic">Systems associated with</text><text x="87.640625" y="68.72031249999999" font-family="Helvetica, Segoe UI Emoji" font-size="16px" fill="#1e1e1e" text-anchor="middle" style="white-space: pre;" direction="ltr" dominant-baseline="alphabetic">account.</text></g><g stroke-linecap="round"><g transform="translate(760 241.5) rotate(0 0 -20)"><path d="M0 0 C0 -11.8, 0 -23.59, 0 -40 M0 0 C0 -14.85, 0 -29.71, 0 -40" stroke="#1e1e1e" stroke-width="2" fill="none"></path></g></g><mask></mask><g stroke-linecap="round" transform="translate(770 81.5) rotate(0 110 40)"><path d="M0 0 C49.93 0, 99.86 0, 220 0 M0 0 C47.97 0, 95.93 0, 220 0 M220 0 C220 24.74, 220 49.49, 220 80 M220 0 C220 31.61, 220 63.22, 220 80 M220 80 C144.01 80, 68.03 80, 0 80 M220 80 C138.78 80, 57.56 80, 0 80 M0 80 C0 61.19, 0 42.39, 0 0 M0 80 C0 55.13, 0 30.26, 0 0" stroke="#1e1e1e" stroke-width="2" fill="none"></path></g><g transform="translate(809.63671875 93.9) rotate(0 70.36328125 27.599999999999994)"><text x="70.36328125" y="13.5203125" font-family="Helvetica, Segoe UI Emoji" font-size="16px" fill="#1e1e1e" text-anchor="middle" style="white-space: pre;" direction="ltr" dominant-baseline="alphabetic">Install of Backdoors</text><text x="70.36328125" y="31.920312499999998" font-family="Helvetica, Segoe UI Emoji" font-size="16px" fill="#1e1e1e" text-anchor="middle" style="white-space: pre;" direction="ltr" dominant-baseline="alphabetic">Data Exfiltration</text><text x="70.36328125" y="50.3203125" font-family="Helvetica, Segoe UI Emoji" font-size="16px" fill="#1e1e1e" text-anchor="middle" style="white-space: pre;" direction="ltr" dominant-baseline="alphabetic">Privilege Escalation</text></g><g stroke-linecap="round"><g transform="translate(880 161.5) rotate(0 0 20)"><path d="M0 0 C0 9.15, 0 18.3, 0 40 M0 0 C0 13.06, 0 26.12, 0 40" stroke="#1e1e1e" stroke-width="2" fill="none"></path></g></g><mask></mask><g stroke-linecap="round" transform="translate(10 61.5) rotate(0 510 140)"><path d="M0 0 C293.39 0, 586.77 0, 1020 0 M0 0 C387.11 0, 774.22 0, 1020 0 M1020 0 C1020 95.03, 1020 190.06, 1020 280 M1020 0 C1020 83, 1020 165.99, 1020 280 M1020 280 C777.11 280, 534.22 280, 0 280 M1020 280 C776.88 280, 533.76 280, 0 280 M0 280 C0 215.29, 0 150.58, 0 0 M0 280 C0 190.07, 0 100.14, 0 0" stroke="#fd7e14" stroke-width="2" fill="none"></path></g><g transform="translate(300.8798828125 10) rotate(0 219.1201171875 20.7)"><text x="0" y="30.420703125" font-family="Helvetica, Segoe UI Emoji" font-size="36px" fill="#fd7e14" text-anchor="start" style="white-space: pre;" direction="ltr" dominant-baseline="alphabetic">Kerberoasting Attack Chain</text></g></svg>