<svg version="1.1" xmlns="http://www.w3.org/2000/svg" viewBox="0 0 1275.6548151531783 750.4147815302997" width="1275.6548151531783" height="750.4147815302997" filter="invert(93%) hue-rotate(180deg)" class="excalidraw-svg">
  <!-- svg-source:excalidraw -->
  
  <defs>
    <style class="style-fonts">
      
    </style>
    
  </defs>
  <rect x="0" y="0" width="1275.6548151531783" height="750.4147815302997" fill="#f8f9fa"></rect><g stroke-linecap="round" transform="translate(544.6548151531783 46.90580357142858) rotate(0 360.49999999999994 205.020461666347)"><path d="M0 0 C275.35 0, 550.69 0, 721 0 M721 0 C721 125.83, 721 251.65, 721 410.04 M721 410.04 C524.99 410.04, 328.99 410.04, 0 410.04 M0 410.04 C0 312.75, 0 215.46, 0 0" stroke="#f08c00" stroke-width="2.5" fill="none" stroke-dasharray="1.5 8"></path></g><g transform="translate(718.0932917156783 10) rotate(0 187.0615234375 16.099999999999994)"><text x="187.0615234375" y="23.660546874999998" font-family="Helvetica, Segoe UI Emoji" font-size="28px" fill="#f08c00" text-anchor="middle" style="white-space: pre;" direction="ltr" dominant-baseline="alphabetic">Key Distribution Center (KDC)</text></g><g stroke-linecap="round" transform="translate(589.3047573162784 77.9626373626374) rotate(0 156.15384615384616 68.46153846153845)"><path d="M0 0 C79.76 0, 159.51 0, 312.31 0 M0 0 C108.76 0, 217.51 0, 312.31 0 M312.31 0 C312.31 31.11, 312.31 62.22, 312.31 136.92 M312.31 0 C312.31 53.68, 312.31 107.36, 312.31 136.92 M312.31 136.92 C205.82 136.92, 99.34 136.92, 0 136.92 M312.31 136.92 C203.58 136.92, 94.86 136.92, 0 136.92 M0 136.92 C0 92.05, 0 47.18, 0 0 M0 136.92 C0 99.24, 0 61.55, 0 0" stroke="#1971c2" stroke-width="2" fill="none"></path></g><g transform="translate(610.7662206576244 130.32417582417585) rotate(0 134.6923828125 16.099999999999994)"><text x="134.6923828125" y="23.660546874999998" font-family="Helvetica, Segoe UI Emoji" font-size="28px" fill="#1971c2" text-anchor="middle" style="white-space: pre;" direction="ltr" dominant-baseline="alphabetic">Authentication Server</text></g><g stroke-linecap="round" transform="translate(589.3047573162784 289.9616252168884) rotate(0 156.15384615384616 67.83653846153845)"><path d="M0 0 C62.9 0, 125.81 0, 312.31 0 M0 0 C93.2 0, 186.39 0, 312.31 0 M312.31 0 C312.31 43.5, 312.31 86.99, 312.31 135.67 M312.31 0 C312.31 49.33, 312.31 98.66, 312.31 135.67 M312.31 135.67 C241.77 135.67, 171.23 135.67, 0 135.67 M312.31 135.67 C210.07 135.67, 107.84 135.67, 0 135.67 M0 135.67 C0 94.98, 0 54.3, 0 0 M0 135.67 C0 85.23, 0 34.78, 0 0" stroke="#2f9e44" stroke-width="2" fill="none"></path></g><g transform="translate(605.5923925326244 341.6981636784269) rotate(0 139.8662109375 16.099999999999994)"><text x="139.8662109375" y="23.660546874999998" font-family="Helvetica, Segoe UI Emoji" font-size="28px" fill="#2f9e44" text-anchor="middle" style="white-space: pre;" direction="ltr" dominant-baseline="alphabetic">Ticket Granting Server</text></g><g stroke-linecap="round"><g transform="translate(1025.5868650993816 161.56299474173971) rotate(0 86.66432271796128 94.12180159280186)" fill-rule="evenodd"><path d="M-0.4 -2.08 C0.43 26.58, 3.09 139.58, 2.95 171.31 C2.8 203.04, -2.09 184.3, -1.25 188.3 C-0.41 192.3, 0.94 192.45, 8 195.33 C15.05 198.21, 27.26 203.71, 41.1 205.59 C54.95 207.47, 74.23 207.21, 91.04 206.6 C107.85 205.98, 128.94 203.57, 141.98 201.87 C155.01 200.17, 164.25 198.9, 169.26 196.42 C174.27 193.93, 171.22 191.15, 172.04 186.94 C172.85 182.72, 174.18 200.33, 174.16 171.14 C174.14 141.95, 172.15 40.44, 171.92 11.8 C171.69 -16.85, 174.54 2.94, 172.8 -0.74 C171.06 -4.41, 167.63 -7.79, 161.49 -10.26 C155.36 -12.74, 149.04 -14.53, 135.98 -15.59 C122.92 -16.65, 98.87 -16.76, 83.15 -16.63 C67.42 -16.49, 54.62 -16.38, 41.61 -14.8 C28.6 -13.22, 11.82 -9.7, 5.09 -7.14 C-1.63 -4.58, 1.75 -0.94, 1.27 0.58 C0.79 2.1, 2.59 2.33, 2.21 1.99" stroke="none" stroke-width="0" fill="#ced4da" fill-rule="evenodd"></path><path d="M-0.28 0.14 C-0.18 28.28, -0.15 137.73, -0.11 169.01 C-0.08 200.29, -1.71 183.06, -0.09 187.83 C1.53 192.6, 2.9 195.15, 9.59 197.65 C16.28 200.15, 26.24 201.27, 40.03 202.82 C53.83 204.38, 75.26 206.92, 92.36 206.98 C109.45 207.05, 129.8 205.18, 142.62 203.19 C155.45 201.21, 164.44 197.83, 169.3 195.09 C174.17 192.36, 170.96 190.68, 171.81 186.79 C172.66 182.9, 174.31 200.61, 174.4 171.75 C174.49 142.89, 172.54 42.56, 172.34 13.63 C172.15 -15.3, 175 2.02, 173.25 -1.83 C171.49 -5.69, 167.61 -7.61, 161.81 -9.51 C156.02 -11.4, 151.5 -11.83, 138.5 -13.19 C125.49 -14.55, 100.03 -17.34, 83.79 -17.67 C67.54 -18, 53.61 -16.98, 41.05 -15.17 C28.48 -13.36, 15.06 -9.44, 8.39 -6.81 C1.71 -4.17, 2.59 -0.47, 1 0.67 C-0.59 1.81, -0.94 -0.03, -1.15 0.05 M1.77 -0.83 C2.33 27.47, 2.69 138.81, 2.24 170.41 C1.79 202.01, -2.24 184.6, -0.92 188.78 C0.4 192.96, 3.6 193.2, 10.18 195.51 C16.77 197.82, 24.67 200.83, 38.6 202.65 C52.52 204.46, 76.29 206.49, 93.74 206.41 C111.19 206.33, 130.89 204.03, 143.32 202.16 C155.76 200.3, 163.38 197.43, 168.36 195.21 C173.35 193, 172.63 192.85, 173.24 188.88 C173.85 184.9, 172.18 200.45, 172.02 171.36 C171.87 142.27, 172.24 42.75, 172.31 14.32 C172.39 -14.11, 174.09 4.95, 172.45 0.79 C170.82 -3.36, 168.19 -8.29, 162.5 -10.6 C156.82 -12.91, 151.41 -11.81, 138.33 -13.06 C125.25 -14.32, 100.05 -18.01, 84 -18.13 C67.95 -18.24, 54.76 -15.82, 42.03 -13.77 C29.3 -11.72, 14.59 -8.36, 7.64 -5.82 C0.68 -3.29, 1.48 0.42, 0.29 1.44 C-0.9 2.47, 0.55 0.57, 0.52 0.33" stroke="#846358" stroke-width="1" fill="none"></path></g></g><mask></mask><g stroke-linecap="round" transform="translate(1026.2020215628331 141.31558948118897) rotate(0 86.20166034071084 17.43363728218968)"><path d="M110.71 0.26 C123.11 0.73, 135.54 3.89, 145.11 5.77 C154.68 7.64, 163.69 9.07, 168.14 11.5 C172.59 13.93, 173.86 17.55, 171.82 20.33 C169.78 23.11, 164.12 25.92, 155.9 28.18 C147.68 30.45, 134.52 32.74, 122.51 33.93 C110.49 35.13, 97.09 35.53, 83.82 35.35 C70.55 35.16, 54.53 34.22, 42.9 32.83 C31.27 31.45, 20.99 29.47, 14.04 27.05 C7.1 24.62, 2.4 20.85, 1.24 18.27 C0.08 15.7, 2.19 13.97, 7.08 11.6 C11.96 9.23, 20.41 6.05, 30.56 4.04 C40.7 2.03, 53.74 0.13, 67.94 -0.44 C82.14 -1.01, 107.25 0.1, 115.75 0.6 C124.26 1.11, 119.43 2.18, 118.98 2.59 M63.12 1.89 C75.23 1.08, 91 0.64, 104.04 0.93 C117.07 1.22, 131.15 1.94, 141.32 3.6 C151.48 5.26, 159.86 8.54, 165.04 10.88 C170.23 13.23, 173.38 15.17, 172.43 17.68 C171.49 20.19, 166.61 23.24, 159.36 25.93 C152.11 28.61, 140.49 32.47, 128.95 33.77 C117.41 35.07, 103.4 34.07, 90.13 33.73 C76.86 33.4, 61.57 32.87, 49.31 31.77 C37.04 30.67, 24.81 29.26, 16.54 27.13 C8.26 25.01, 1.6 21.37, -0.35 19.02 C-2.3 16.68, 0.44 15.63, 4.84 13.07 C9.24 10.52, 16.45 5.64, 26.06 3.69 C35.68 1.74, 56.32 1.87, 62.5 1.38 C68.69 0.88, 62.79 0.42, 63.19 0.72" stroke="none" stroke-width="0" fill="#fff"></path><path d="M82.6 0.08 C95.15 -0.4, 109.41 0.43, 121.54 1.57 C133.67 2.71, 147.02 4.75, 155.37 6.92 C163.73 9.1, 169.39 12.12, 171.66 14.61 C173.92 17.11, 173.19 19.22, 168.95 21.9 C164.7 24.58, 155.84 28.76, 146.19 30.71 C136.53 32.66, 123.86 32.78, 111.04 33.58 C98.22 34.38, 82.55 35.83, 69.27 35.53 C55.98 35.22, 41.75 33.48, 31.34 31.77 C20.92 30.06, 11.88 27.9, 6.78 25.27 C1.68 22.64, -0.32 18.86, 0.73 16.01 C1.78 13.16, 6.09 10.31, 13.08 8.17 C20.06 6.04, 30.17 4.43, 42.64 3.22 C55.11 2.01, 79.41 1.54, 87.91 0.91 C96.41 0.29, 93.72 -0.66, 93.64 -0.55 M125.99 0.72 C138.27 1.96, 151.08 6.37, 158.58 8.78 C166.08 11.19, 169.71 12.87, 170.99 15.19 C172.26 17.5, 170.72 19.96, 166.23 22.68 C161.75 25.4, 154.12 29.51, 144.08 31.51 C134.05 33.51, 119.15 34.26, 106.02 34.66 C92.88 35.07, 78.08 34.39, 65.27 33.92 C52.45 33.45, 39.16 33.57, 29.13 31.83 C19.1 30.1, 9.76 26.29, 5.08 23.49 C0.41 20.69, -0.51 17.93, 1.08 15.03 C2.66 12.13, 7 8.24, 14.58 6.06 C22.16 3.88, 34.57 3.1, 46.56 1.96 C58.55 0.82, 73.39 -0.6, 86.52 -0.78 C99.65 -0.96, 118.93 0.26, 125.33 0.9 C131.72 1.54, 125.38 2.55, 124.91 3.06" stroke="#846358" stroke-width="1" fill="none"></path></g><g transform="translate(1052.0517341137966 238.8320621715367) rotate(0 60.14453125 16.099999999999998)"><text x="60.14453125" y="23.660546874999998" font-family="Helvetica, Segoe UI Emoji" font-size="28px" fill="#846358" text-anchor="middle" style="white-space: pre;" direction="ltr" dominant-baseline="alphabetic">Database</text></g><g stroke-linecap="round"><g transform="translate(1027.331073105752 158.42316367842687) rotate(0 -58.75 -5.625)"><path d="M0 0 C-19.58 -1.88, -97.92 -9.38, -117.5 -11.25 M0 0 C-19.58 -1.88, -97.92 -9.38, -117.5 -11.25" stroke="#1e1e1e" stroke-width="2" fill="none"></path></g><g transform="translate(1027.331073105752 158.42316367842687) rotate(0 -58.75 -5.625)"><path d="M-93.3 -17.52 C-98.77 -16.11, -104.23 -14.69, -117.5 -11.25 M-93.3 -17.52 C-101.36 -15.43, -109.43 -13.34, -117.5 -11.25" stroke="#1e1e1e" stroke-width="2" fill="none"></path></g><g transform="translate(1027.331073105752 158.42316367842687) rotate(0 -58.75 -5.625)"><path d="M-94.93 -0.5 C-100.03 -2.93, -105.12 -5.36, -117.5 -11.25 M-94.93 -0.5 C-102.45 -4.08, -109.97 -7.66, -117.5 -11.25" stroke="#1e1e1e" stroke-width="2" fill="none"></path></g></g><mask></mask><g stroke-linecap="round"><g transform="translate(1024.831073105752 350.9231636784269) rotate(0 -58.125 6.874999999999993)"><path d="M0 0 C-19.38 2.29, -96.88 11.46, -116.25 13.75 M0 0 C-19.38 2.29, -96.88 11.46, -116.25 13.75" stroke="#1e1e1e" stroke-width="2" fill="none"></path></g><g transform="translate(1024.831073105752 350.9231636784269) rotate(0 -58.125 6.874999999999993)"><path d="M-93.92 2.5 C-102.37 6.76, -110.82 11.01, -116.25 13.75 M-93.92 2.5 C-101.84 6.49, -109.76 10.48, -116.25 13.75" stroke="#1e1e1e" stroke-width="2" fill="none"></path></g><g transform="translate(1024.831073105752 350.9231636784269) rotate(0 -58.125 6.874999999999993)"><path d="M-91.92 19.48 C-101.12 17.31, -110.33 15.14, -116.25 13.75 M-91.92 19.48 C-100.54 17.45, -109.17 15.42, -116.25 13.75" stroke="#1e1e1e" stroke-width="2" fill="none"></path></g></g><mask></mask><g stroke-linecap="round" transform="translate(103.8367105998675 65.27863244377215) rotate(0 74.3602668958824 89.87343256716602)"><path d="M148.72 89.87 C148.72 93, 148.58 96.15, 148.31 99.27 C148.04 102.38, 147.63 105.5, 147.1 108.56 C146.56 111.62, 145.88 114.67, 145.08 117.65 C144.28 120.62, 143.35 123.57, 142.29 126.43 C141.24 129.29, 140.05 132.1, 138.76 134.81 C137.46 137.52, 136.04 140.17, 134.52 142.7 C133 145.23, 131.35 147.68, 129.62 150.01 C127.89 152.34, 126.04 154.57, 124.12 156.66 C122.19 158.76, 120.16 160.74, 118.07 162.58 C115.97 164.42, 113.78 166.14, 111.54 167.71 C109.3 169.27, 106.97 170.7, 104.61 171.98 C102.24 173.25, 99.8 174.38, 97.34 175.35 C94.87 176.32, 92.35 177.13, 89.82 177.78 C87.29 178.43, 84.71 178.93, 82.13 179.25 C79.56 179.58, 76.95 179.75, 74.36 179.75 C71.77 179.75, 69.16 179.58, 66.59 179.25 C64.01 178.93, 61.43 178.43, 58.9 177.78 C56.37 177.13, 53.85 176.32, 51.38 175.35 C48.92 174.38, 46.48 173.25, 44.12 171.98 C41.75 170.7, 39.42 169.27, 37.18 167.71 C34.94 166.14, 32.75 164.42, 30.65 162.58 C28.56 160.74, 26.53 158.76, 24.6 156.66 C22.68 154.57, 20.83 152.34, 19.1 150.01 C17.37 147.68, 15.72 145.23, 14.2 142.7 C12.68 140.17, 11.26 137.52, 9.96 134.81 C8.67 132.1, 7.48 129.29, 6.43 126.43 C5.37 123.57, 4.44 120.62, 3.64 117.65 C2.84 114.67, 2.16 111.62, 1.62 108.56 C1.09 105.5, 0.68 102.38, 0.41 99.27 C0.14 96.15, 0 93, 0 89.87 C0 86.74, 0.14 83.59, 0.41 80.48 C0.68 77.36, 1.09 74.25, 1.62 71.19 C2.16 68.12, 2.84 65.08, 3.64 62.1 C4.44 59.12, 5.37 56.18, 6.43 53.32 C7.48 50.46, 8.67 47.65, 9.96 44.94 C11.26 42.22, 12.68 39.58, 14.2 37.05 C15.72 34.51, 17.37 32.06, 19.1 29.74 C20.83 27.41, 22.68 25.18, 24.6 23.08 C26.53 20.99, 28.56 19, 30.65 17.16 C32.75 15.32, 34.94 13.61, 37.18 12.04 C39.42 10.48, 41.75 9.04, 44.12 7.77 C46.48 6.5, 48.92 5.37, 51.38 4.4 C53.85 3.43, 56.37 2.62, 58.9 1.96 C61.43 1.31, 64.01 0.82, 66.59 0.49 C69.16 0.17, 71.77 0, 74.36 0 C76.95 0, 79.56 0.17, 82.13 0.49 C84.71 0.82, 87.29 1.31, 89.82 1.96 C92.35 2.62, 94.87 3.43, 97.34 4.4 C99.8 5.37, 102.24 6.5, 104.61 7.77 C106.97 9.04, 109.3 10.48, 111.54 12.04 C113.78 13.61, 115.97 15.32, 118.07 17.16 C120.16 19, 122.19 20.99, 124.12 23.08 C126.04 25.18, 127.89 27.41, 129.62 29.74 C131.35 32.06, 133 34.51, 134.52 37.05 C136.04 39.58, 137.46 42.22, 138.76 44.94 C140.05 47.65, 141.24 50.46, 142.29 53.32 C143.35 56.18, 144.28 59.12, 145.08 62.1 C145.88 65.08, 146.56 68.12, 147.1 71.19 C147.63 74.25, 148.04 77.36, 148.31 80.48 C148.58 83.59, 148.65 88.31, 148.72 89.87 C148.79 91.44, 148.79 88.31, 148.72 89.87" stroke="transparent" stroke-width="1" fill="none"></path></g><g stroke-linecap="round"><g transform="translate(114.47389280724678 171.86041848494563) rotate(0 62.17330604095031 27.17756761835753)" fill-rule="evenodd"><path d="M0 0 L0.27 22.15 L95.57 69.86 L123.17 50.32 L124.35 28.91 L31.92 -15.51 L0 0" stroke="none" stroke-width="0" fill="#ced4da" fill-rule="evenodd"></path><path d="M0 0 C0.07 5.96, 0.14 11.91, 0.27 22.15 M0 0 C0.08 6.55, 0.16 13.11, 0.27 22.15 M0.27 22.15 C19.86 31.96, 39.45 41.76, 95.57 69.86 M0.27 22.15 C32.52 38.3, 64.78 54.45, 95.57 69.86 M95.57 69.86 C105.25 63.01, 114.94 56.15, 123.17 50.32 M95.57 69.86 C102.21 65.16, 108.85 60.46, 123.17 50.32 M123.17 50.32 C123.49 44.48, 123.81 38.63, 124.35 28.91 M123.17 50.32 C123.47 44.83, 123.77 39.33, 124.35 28.91 M124.35 28.91 C93.65 14.16, 62.96 -0.59, 31.92 -15.51 M124.35 28.91 C89.78 12.3, 55.22 -4.31, 31.92 -15.51 M31.92 -15.51 C24.55 -11.93, 17.19 -8.35, 0 0 M31.92 -15.51 C20.34 -9.88, 8.76 -4.25, 0 0 M0 0 C0 0, 0 0, 0 0 M0 0 C0 0, 0 0, 0 0" stroke="#495057" stroke-width="2" fill="none"></path></g></g><mask></mask><g stroke-linecap="round"><g transform="translate(116.74634816647313 172.5659309581883) rotate(0 60.21875287999626 23.957993947613446)"><path d="M0 0 C35.36 18.46, 70.71 36.91, 91.79 47.92 M0 0 C27.77 14.5, 55.54 28.99, 91.79 47.92 M91.79 47.92 C100.91 41.55, 110.02 35.19, 120.44 27.91 M91.79 47.92 C102.83 40.21, 113.86 32.5, 120.44 27.91" stroke="#495057" stroke-width="2" fill="none"></path></g></g><mask></mask><g stroke-linecap="round"><g transform="translate(209.6340242277529 240.93174237260826) rotate(0 -0.20840440696451878 -9.440322362412452)"><path d="M0 0 C-0.13 -6.06, -0.27 -12.11, -0.42 -18.88 M0 0 C-0.1 -4.61, -0.2 -9.23, -0.42 -18.88" stroke="#495057" stroke-width="2" fill="none"></path></g></g><mask></mask><g stroke-linecap="round"><g transform="translate(154.35041788826288 75.80733929589445) rotate(0 45.01522662291407 59.991578818670966)" fill-rule="evenodd"><path d="M0 0 C6.78 0.9, 26.76 0.43, 40.66 5.43 C54.55 10.43, 75.17 19.64, 83.4 30 C91.62 40.37, 89.46 56.13, 90.03 67.64 C90.6 79.16, 90.69 90.36, 86.82 99.08 C82.96 107.8, 73.21 118.23, 66.85 119.98 C60.49 121.74, 59.36 121.84, 48.67 109.61 C37.98 97.37, 10.74 63.57, 2.72 46.57 C-5.29 29.56, 0.94 14.07, 0.59 7.57" stroke="none" stroke-width="0" fill="#ced4da" fill-rule="evenodd"></path><path d="M0 0 C6.78 0.9, 26.76 0.43, 40.66 5.43 C54.55 10.43, 75.17 19.64, 83.4 30 C91.62 40.37, 89.46 56.13, 90.03 67.64 C90.6 79.16, 90.69 90.36, 86.82 99.08 C82.96 107.8, 73.21 118.23, 66.85 119.98 C60.49 121.74, 59.36 121.84, 48.67 109.61 C37.98 97.37, 10.74 63.57, 2.72 46.57 C-5.29 29.56, 0.94 14.07, 0.59 7.57 M0 0 C6.78 0.9, 26.76 0.43, 40.66 5.43 C54.55 10.43, 75.17 19.64, 83.4 30 C91.62 40.37, 89.46 56.13, 90.03 67.64 C90.6 79.16, 90.69 90.36, 86.82 99.08 C82.96 107.8, 73.21 118.23, 66.85 119.98 C60.49 121.74, 59.36 121.84, 48.67 109.61 C37.98 97.37, 10.74 63.57, 2.72 46.57 C-5.29 29.56, 0.94 14.07, 0.59 7.57" stroke="#495057" stroke-width="2" fill="none"></path></g></g><mask></mask><g stroke-linecap="round"><g transform="translate(122.86211927173099 136.19746521634642) rotate(0 55.08792779494439 2.5979614045111177)" fill-rule="evenodd"><path d="M0 0 C1.69 5.39, -4.23 21.27, 10.14 32.35 C24.5 43.43, 69.68 64.25, 86.21 66.5 C102.73 68.76, 105.29 60.02, 109.29 45.86 C113.28 31.69, 113.59 -4.27, 110.18 -18.47 C106.76 -32.67, 101.92 -32.2, 88.78 -39.34 C75.65 -46.48, 45.45 -59.58, 31.36 -61.31 C17.27 -63.04, 9.46 -59.94, 4.24 -49.72 C-0.99 -39.51, 0.71 -8.29, 0 0" stroke="none" stroke-width="0" fill="#ced4da" fill-rule="evenodd"></path><path d="M0 0 C1.69 5.39, -4.23 21.27, 10.14 32.35 C24.5 43.43, 69.68 64.25, 86.21 66.5 C102.73 68.76, 105.29 60.02, 109.29 45.86 C113.28 31.69, 113.59 -4.27, 110.18 -18.47 C106.76 -32.67, 101.92 -32.2, 88.78 -39.34 C75.65 -46.48, 45.45 -59.58, 31.36 -61.31 C17.27 -63.04, 9.46 -59.94, 4.24 -49.72 C-0.99 -39.51, 0.71 -8.29, 0 0 M0 0 C1.69 5.39, -4.23 21.27, 10.14 32.35 C24.5 43.43, 69.68 64.25, 86.21 66.5 C102.73 68.76, 105.29 60.02, 109.29 45.86 C113.28 31.69, 113.59 -4.27, 110.18 -18.47 C106.76 -32.67, 101.92 -32.2, 88.78 -39.34 C75.65 -46.48, 45.45 -59.58, 31.36 -61.31 C17.27 -63.04, 9.46 -59.94, 4.24 -49.72 C-0.99 -39.51, 0.71 -8.29, 0 0" stroke="#495057" stroke-width="2" fill="none"></path></g></g><mask></mask><g stroke-linecap="round"><g transform="translate(130.34167836604365 135.15050700870535) rotate(0 46.74724433945323 1.9589321437463099)" fill-rule="evenodd"><path d="M0 0 C1.42 4.53, -2.96 17.95, 8.52 27.19 C19.99 36.43, 54.75 52.65, 68.86 55.44 C82.97 58.23, 89.09 55.16, 93.2 43.93 C97.3 32.7, 96.59 0.9, 93.49 -11.93 C90.4 -24.76, 85.81 -26.47, 74.62 -33.06 C63.43 -39.66, 38.2 -50.07, 26.36 -51.53 C14.51 -52.98, 7.95 -50.38, 3.56 -41.79 C-0.83 -33.2, 0.59 -6.97, 0 0" stroke="none" stroke-width="0" fill="#343a40" fill-rule="evenodd"></path><path d="M0 0 C1.42 4.53, -2.96 17.95, 8.52 27.19 C19.99 36.43, 54.75 52.65, 68.86 55.44 C82.97 58.23, 89.09 55.16, 93.2 43.93 C97.3 32.7, 96.59 0.9, 93.49 -11.93 C90.4 -24.76, 85.81 -26.47, 74.62 -33.06 C63.43 -39.66, 38.2 -50.07, 26.36 -51.53 C14.51 -52.98, 7.95 -50.38, 3.56 -41.79 C-0.83 -33.2, 0.59 -6.97, 0 0 M0 0 C1.42 4.53, -2.96 17.95, 8.52 27.19 C19.99 36.43, 54.75 52.65, 68.86 55.44 C82.97 58.23, 89.09 55.16, 93.2 43.93 C97.3 32.7, 96.59 0.9, 93.49 -11.93 C90.4 -24.76, 85.81 -26.47, 74.62 -33.06 C63.43 -39.66, 38.2 -50.07, 26.36 -51.53 C14.51 -52.98, 7.95 -50.38, 3.56 -41.79 C-0.83 -33.2, 0.59 -6.97, 0 0" stroke="#495057" stroke-width="2" fill="none"></path></g></g><mask></mask><g stroke-linecap="round"><g transform="translate(182.70094899973287 215.66604499896403) rotate(0 9.468172028118431 7.291580757286244)" fill-rule="evenodd"><path d="M0 0 L18.86 9.48 L18.94 14.58 L0.36 5.56 L0 0" stroke="none" stroke-width="0" fill="#495057" fill-rule="evenodd"></path><path d="M0 0 C5.89 2.96, 11.77 5.92, 18.86 9.48 M0 0 C6.67 3.35, 13.33 6.7, 18.86 9.48 M18.86 9.48 C18.88 10.99, 18.91 12.5, 18.94 14.58 M18.86 9.48 C18.89 11.24, 18.91 13, 18.94 14.58 M18.94 14.58 C13.31 11.85, 7.69 9.12, 0.36 5.56 M18.94 14.58 C13.69 12.03, 8.44 9.49, 0.36 5.56 M0.36 5.56 C0.26 4.05, 0.16 2.54, 0 0 M0.36 5.56 C0.25 3.89, 0.14 2.22, 0 0 M0 0 C0 0, 0 0, 0 0 M0 0 C0 0, 0 0, 0 0" stroke="#495057" stroke-width="1" fill="none"></path></g></g><mask></mask><g transform="translate(141.79365718324982 19.982086995964266) rotate(0 36.4033203125 16.099999999999994)"><text x="36.4033203125" y="23.660546874999998" font-family="Helvetica, Segoe UI Emoji" font-size="28px" fill="#1e1e1e" text-anchor="middle" style="white-space: pre;" direction="ltr" dominant-baseline="alphabetic">Client</text></g><g stroke-linecap="round" transform="translate(96.28168428901301 524.745013763918) rotate(0 85.15091612077143 107.36419858705959)"><path d="M0 0 C55.55 0, 111.11 0, 170.3 0 M0 0 C57.17 0, 114.34 0, 170.3 0 M170.3 0 C170.3 44.37, 170.3 88.73, 170.3 214.73 M170.3 0 C170.3 76.01, 170.3 152.02, 170.3 214.73 M170.3 214.73 C130.41 214.73, 90.52 214.73, 0 214.73 M170.3 214.73 C119.06 214.73, 67.81 214.73, 0 214.73 M0 214.73 C0 163.92, 0 113.12, 0 0 M0 214.73 C0 167.13, 0 119.52, 0 0" stroke="#0000" stroke-width="2" fill="none"></path></g><g stroke-linecap="round"><g transform="translate(104.38989980701831 659.3869053545452) rotate(0 78.72594787530704 16.573883763222454)" fill-rule="evenodd"><path d="M0 0 L0.46 32.69 L80.11 81.03 L154.69 36.83 L157.45 0 L77.34 -47.88 L0 0" stroke="none" stroke-width="0" fill="#ced4da" fill-rule="evenodd"></path><path d="M0 0 C0.15 10.56, 0.3 21.11, 0.46 32.69 M0 0 C0.13 8.94, 0.25 17.87, 0.46 32.69 M0.46 32.69 C16.84 42.63, 33.22 52.57, 80.11 81.03 M0.46 32.69 C16.82 42.62, 33.19 52.55, 80.11 81.03 M80.11 81.03 C95.19 72.09, 110.27 63.15, 154.69 36.83 M80.11 81.03 C96.56 71.28, 113.02 61.52, 154.69 36.83 M154.69 36.83 C155.69 23.55, 156.68 10.28, 157.45 0 M154.69 36.83 C155.29 28.77, 155.9 20.71, 157.45 0 M157.45 0 C135.79 -12.95, 114.13 -25.9, 77.34 -47.88 M157.45 0 C134.82 -13.53, 112.18 -27.06, 77.34 -47.88 M77.34 -47.88 C60.78 -37.62, 44.21 -27.37, 0 0 M77.34 -47.88 C52.02 -32.2, 26.69 -16.52, 0 0 M0 0 C0 0, 0 0, 0 0 M0 0 C0 0, 0 0, 0 0" stroke="#495057" stroke-width="2" fill="none"></path></g></g><mask></mask><g stroke-linecap="round"><g transform="translate(184.03661900251268 737.1920819096777) rotate(0 1.1368683772161603e-13 -15.653112443043483)"><path d="M0 0 C0 -9.62, 0 -19.24, 0 -31.31 M0 0 C0 -9.73, 0 -19.46, 0 -31.31" stroke="#495057" stroke-width="2" fill="none"></path></g></g><mask></mask><g stroke-linecap="round"><g transform="translate(105.3106711272012 660.3076766747241) rotate(0 77.11459806499369 22.55889734438611)"><path d="M0 0 C16.21 9.29, 32.42 18.58, 78.73 45.12 M0 0 C22.01 12.62, 44.03 25.23, 78.73 45.12 M78.73 45.12 C94.52 36.16, 110.32 27.2, 154.23 2.3 M78.73 45.12 C94.11 36.4, 109.48 27.68, 154.23 2.3" stroke="#495057" stroke-width="2" fill="none"></path></g></g><mask></mask><g stroke-linecap="round"><g transform="translate(190.94240390385232 721.0785838065435) rotate(0 18.501896034884965 -10.358677352014041)"><path d="M0 0 C14.35 -8.04, 28.71 -16.07, 37 -20.72 M0 0 C10.9 -6.1, 21.8 -12.2, 37 -20.72" stroke="#495057" stroke-width="2" fill="none"></path></g></g><mask></mask><g stroke-linecap="round"><g transform="translate(234.9817327028909 692.4925332727321) rotate(0 9.62325610278009 -1.3273456693490004)" fill-rule="evenodd"><path d="M0 0 L0.22 8.41 L17.8 -3.02 L19.25 -11.06 L0 0" stroke="none" stroke-width="0" fill="#ced4da" fill-rule="evenodd"></path><path d="M0 0 C0.07 2.64, 0.14 5.29, 0.22 8.41 M0 0 C0.07 2.55, 0.13 5.09, 0.22 8.41 M0.22 8.41 C4.53 5.6, 8.84 2.8, 17.8 -3.02 M0.22 8.41 C6.42 4.37, 12.63 0.34, 17.8 -3.02 M17.8 -3.02 C18.27 -5.66, 18.75 -8.3, 19.25 -11.06 M17.8 -3.02 C18.35 -6.09, 18.9 -9.16, 19.25 -11.06 M19.25 -11.06 C11.68 -6.71, 4.12 -2.37, 0 0 M19.25 -11.06 C15.24 -8.76, 11.23 -6.46, 0 0 M0 0 C0 0, 0 0, 0 0 M0 0 C0 0, 0 0, 0 0" stroke="#495057" stroke-width="1" fill="none"></path></g></g><mask></mask><g stroke-linecap="round"><g transform="translate(104.04226165553564 615.9835974694714) rotate(0 78.72594787530704 16.573883763222426)" fill-rule="evenodd"><path d="M0 0 L0.46 32.69 L80.11 81.03 L154.69 36.83 L157.45 0 L77.34 -47.88 L0 0" stroke="none" stroke-width="0" fill="#ced4da" fill-rule="evenodd"></path><path d="M0 0 C0.18 12.71, 0.36 25.42, 0.46 32.69 M0 0 C0.11 7.68, 0.22 15.37, 0.46 32.69 M0.46 32.69 C23.79 46.85, 47.12 61.01, 80.11 81.03 M0.46 32.69 C20.65 44.94, 40.84 57.2, 80.11 81.03 M80.11 81.03 C98.9 69.89, 117.7 58.75, 154.69 36.83 M80.11 81.03 C102.06 68.02, 124.02 55, 154.69 36.83 M154.69 36.83 C155.42 27.05, 156.16 17.28, 157.45 0 M154.69 36.83 C155.47 26.48, 156.24 16.12, 157.45 0 M157.45 0 C131.44 -15.55, 105.43 -31.09, 77.34 -47.88 M157.45 0 C135.84 -12.92, 114.23 -25.83, 77.34 -47.88 M77.34 -47.88 C49.22 -30.47, 21.1 -13.06, 0 0 M77.34 -47.88 C54.2 -33.55, 31.06 -19.23, 0 0 M0 0 C0 0, 0 0, 0 0 M0 0 C0 0, 0 0, 0 0" stroke="#495057" stroke-width="2" fill="none"></path></g></g><mask></mask><g stroke-linecap="round"><g transform="translate(183.6889808510009 693.788774024596) rotate(0 1.1368683772161603e-13 -15.653112443043483)"><path d="M0 0 C0 -6.47, 0 -12.94, 0 -31.31 M0 0 C0 -11.08, 0 -22.16, 0 -31.31" stroke="#495057" stroke-width="2" fill="none"></path></g></g><mask></mask><g stroke-linecap="round"><g transform="translate(104.96303297570182 616.9043687896492) rotate(0 77.11459806499369 22.55889734438614)"><path d="M0 0 C16.19 9.28, 32.38 18.56, 78.73 45.12 M0 0 C16.18 9.27, 32.35 18.54, 78.73 45.12 M78.73 45.12 C93.99 36.46, 109.26 27.8, 154.23 2.3 M78.73 45.12 C95.39 35.67, 112.04 26.22, 154.23 2.3" stroke="#495057" stroke-width="2" fill="none"></path></g></g><mask></mask><g stroke-linecap="round"><g transform="translate(190.5947657523518 677.6752759214668) rotate(0 19.336197723759653 -10.358677352014013)"><path d="M0 0 C12.21 -6.54, 24.43 -13.09, 38.67 -20.72 M0 0 C14.24 -7.63, 28.48 -15.26, 38.67 -20.72" stroke="#495057" stroke-width="2" fill="none"></path></g></g><mask></mask><g stroke-linecap="round"><g transform="translate(235.88554708470633 647.8377728543446) rotate(0 8.14237060502768 -0.8830800200229589)" fill-rule="evenodd"><path d="M0 0 L0.22 8.41 L15.91 -0.88 L16.28 -10.17 L0 0" stroke="none" stroke-width="0" fill="#ced4da" fill-rule="evenodd"></path><path d="M0 0 C0.05 1.76, 0.09 3.52, 0.22 8.41 M0 0 C0.05 1.71, 0.09 3.42, 0.22 8.41 M0.22 8.41 C3.54 6.44, 6.85 4.48, 15.91 -0.88 M0.22 8.41 C5.61 5.22, 10.99 2.03, 15.91 -0.88 M15.91 -0.88 C16.04 -4.14, 16.17 -7.4, 16.28 -10.17 M15.91 -0.88 C16.01 -3.27, 16.1 -5.66, 16.28 -10.17 M16.28 -10.17 C12.9 -8.06, 9.52 -5.95, 0 0 M16.28 -10.17 C9.96 -6.22, 3.64 -2.27, 0 0 M0 0 C0 0, 0 0, 0 0 M0 0 C0 0, 0 0, 0 0" stroke="#495057" stroke-width="1" fill="none"></path></g></g><mask></mask><g stroke-linecap="round"><g transform="translate(103.69462350402512 573.1726437834973) rotate(0 78.72594787530704 16.573883763222426)" fill-rule="evenodd"><path d="M0 0 L0.46 32.69 L80.11 81.03 L154.69 36.83 L157.45 0 L77.34 -47.88 L0 0" stroke="none" stroke-width="0" fill="#ced4da" fill-rule="evenodd"></path><path d="M0 0 C0.16 11.45, 0.32 22.89, 0.46 32.69 M0 0 C0.09 6.74, 0.19 13.48, 0.46 32.69 M0.46 32.69 C26.7 48.61, 52.94 64.54, 80.11 81.03 M0.46 32.69 C17.28 42.89, 34.1 53.1, 80.11 81.03 M80.11 81.03 C105.05 66.25, 129.99 51.47, 154.69 36.83 M80.11 81.03 C100.49 68.95, 120.88 56.87, 154.69 36.83 M154.69 36.83 C155.42 27.03, 156.16 17.23, 157.45 0 M154.69 36.83 C155.77 22.48, 156.84 8.14, 157.45 0 M157.45 0 C136.03 -12.8, 114.61 -25.6, 77.34 -47.88 M157.45 0 C138.29 -11.45, 119.13 -22.9, 77.34 -47.88 M77.34 -47.88 C56.17 -34.77, 34.99 -21.66, 0 0 M77.34 -47.88 C59.19 -36.64, 41.04 -25.41, 0 0 M0 0 C0 0, 0 0, 0 0 M0 0 C0 0, 0 0, 0 0" stroke="#495057" stroke-width="2" fill="none"></path></g></g><mask></mask><g stroke-linecap="round"><g transform="translate(183.34134269952222 650.9778203386197) rotate(0 1.1368683772161603e-13 -15.653112443043483)"><path d="M0 0 C0 -7.68, 0 -15.35, 0 -31.31 M0 0 C0 -11.05, 0 -22.09, 0 -31.31" stroke="#495057" stroke-width="2" fill="none"></path></g></g><mask></mask><g stroke-linecap="round"><g transform="translate(104.615394824222 574.0934151036736) rotate(0 77.11459806499369 22.55889734438614)"><path d="M0 0 C23.06 13.22, 46.12 26.43, 78.73 45.12 M0 0 C19.96 11.44, 39.91 22.87, 78.73 45.12 M78.73 45.12 C97.75 34.33, 116.78 23.54, 154.23 2.3 M78.73 45.12 C100.95 32.51, 123.18 19.91, 154.23 2.3" stroke="#495057" stroke-width="2" fill="none"></path></g></g><mask></mask><g stroke-linecap="round"><g transform="translate(190.247127600863 634.8643222354874) rotate(0 19.336197723759653 -10.358677352014013)"><path d="M0 0 C9.06 -4.85, 18.12 -9.71, 38.67 -20.72 M0 0 C11.64 -6.23, 23.27 -12.47, 38.67 -20.72" stroke="#495057" stroke-width="2" fill="none"></path></g></g><mask></mask><g stroke-linecap="round"><g transform="translate(235.53790893320797 605.0268191683691) rotate(0 8.8828133539038 -0.7349914702478486)" fill-rule="evenodd"><path d="M0 0 L0.22 8.41 L16.8 -0.59 L17.77 -9.88 L0 0" stroke="none" stroke-width="0" fill="#ced4da" fill-rule="evenodd"></path><path d="M0 0 C0.04 1.7, 0.09 3.4, 0.22 8.41 M0 0 C0.05 1.85, 0.1 3.71, 0.22 8.41 M0.22 8.41 C6.2 5.17, 12.18 1.92, 16.8 -0.59 M0.22 8.41 C3.85 6.44, 7.48 4.47, 16.8 -0.59 M16.8 -0.59 C17.06 -3.1, 17.32 -5.61, 17.77 -9.88 M16.8 -0.59 C17.07 -3.21, 17.35 -5.84, 17.77 -9.88 M17.77 -9.88 C13.96 -7.76, 10.15 -5.65, 0 0 M17.77 -9.88 C11.95 -6.64, 6.13 -3.41, 0 0 M0 0 C0 0, 0 0, 0 0 M0 0 C0 0, 0 0, 0 0" stroke="#495057" stroke-width="1" fill="none"></path></g></g><mask></mask><g transform="translate(110.56053009728441 480.2976271329181) rotate(0 70.8720703125 16.099999999999994)"><text x="70.8720703125" y="23.660546874999998" font-family="Helvetica, Segoe UI Emoji" font-size="28px" fill="#1e1e1e" text-anchor="middle" style="white-space: pre;" direction="ltr" dominant-baseline="alphabetic">App Server</text></g><g mask="url(#mask-dzGOoDHXs9cb5E4LlO2yf)" stroke-linecap="round"><g transform="translate(236.9371534336699 93.68325475570424) rotate(0 171.67887793468154 18.3172197684532)"><path d="M0 0 C57.23 6.11, 286.13 30.53, 343.36 36.63 M0 0 C57.23 6.11, 286.13 30.53, 343.36 36.63" stroke="#1e1e1e" stroke-width="2" fill="none"></path></g><g transform="translate(236.9371534336699 93.68325475570424) rotate(0 171.67887793468154 18.3172197684532)"><path d="M319.09 42.64 C327.31 40.61, 335.54 38.57, 343.36 36.63 M319.09 42.64 C326.64 40.77, 334.19 38.9, 343.36 36.63" stroke="#1e1e1e" stroke-width="2" fill="none"></path></g><g transform="translate(236.9371534336699 93.68325475570424) rotate(0 171.67887793468154 18.3172197684532)"><path d="M320.91 25.64 C328.51 29.37, 336.12 33.09, 343.36 36.63 M320.91 25.64 C327.89 29.06, 334.88 32.48, 343.36 36.63" stroke="#1e1e1e" stroke-width="2" fill="none"></path></g></g><mask id="mask-dzGOoDHXs9cb5E4LlO2yf"><rect x="0" y="0" fill="#fff" width="680.2949093030329" height="230.31769429261064"></rect><rect x="347.2986485558514" y="100.50047452415743" fill="#000" width="122.634765625" height="23" opacity="1"></rect></mask><g transform="translate(347.2986485558514 100.50047452415743) rotate(0 61.31738281250003 11.500000000000014)"><text x="61.3173828125" y="16.900390625" font-family="Helvetica, Segoe UI Emoji" font-size="20px" fill="#1e1e1e" text-anchor="middle" style="white-space: pre;" direction="ltr" dominant-baseline="alphabetic">Auth Request</text></g><g mask="url(#mask-4mPfnEXsgdJo0Ue4bunt8)" stroke-linecap="round"><g transform="translate(582.1034528486452 140.42553891318124) rotate(0 -161.01451614523444 -0.7579883814045303)"><path d="M0 0 C-53.67 -0.25, -268.36 -1.26, -322.03 -1.52 M0 0 C-53.67 -0.25, -268.36 -1.26, -322.03 -1.52" stroke="#1e1e1e" stroke-width="2" fill="none"></path></g><g transform="translate(582.1034528486452 140.42553891318124) rotate(0 -161.01451614523444 -0.7579883814045303)"><path d="M-298.5 -9.96 C-306.11 -7.23, -313.72 -4.5, -322.03 -1.52 M-298.5 -9.96 C-307.79 -6.62, -317.07 -3.29, -322.03 -1.52" stroke="#1e1e1e" stroke-width="2" fill="none"></path></g><g transform="translate(582.1034528486452 140.42553891318124) rotate(0 -161.01451614523444 -0.7579883814045303)"><path d="M-298.58 7.15 C-306.16 4.34, -313.75 1.54, -322.03 -1.52 M-298.58 7.15 C-307.83 3.73, -317.09 0.31, -322.03 -1.52" stroke="#1e1e1e" stroke-width="2" fill="none"></path></g></g><mask id="mask-4mPfnEXsgdJo0Ue4bunt8"><rect x="0" y="0" fill="#fff" width="1004.1324851391141" height="241.9415156759903"></rect><rect x="352.2715538909108" y="128.16755053177673" fill="#000" width="137.634765625" height="23" opacity="1"></rect></mask><g transform="translate(352.2715538909108 128.16755053177673) rotate(0 68.8173828125 11.499999999999986)"><text x="68.8173828125" y="16.900390625" font-family="Helvetica, Segoe UI Emoji" font-size="20px" fill="#1e1e1e" text-anchor="middle" style="white-space: pre;" direction="ltr" dominant-baseline="alphabetic">Auth Response</text></g><g mask="url(#mask-nQ9cXplTH2IXrpeA9qveK)" stroke-linecap="round"><g transform="translate(103.7897830362657 551.24780853321) rotate(0 -8.326292424334781 -167.51501419271676)"><path d="M0 0 C-5.88 -26.52, -38.35 -103.3, -35.25 -159.14 C-32.15 -214.98, 9.62 -305.71, 18.6 -335.03 M0 0 C-5.88 -26.52, -38.35 -103.3, -35.25 -159.14 C-32.15 -214.98, 9.62 -305.71, 18.6 -335.03" stroke="#1e1e1e" stroke-width="2" fill="none"></path></g><g transform="translate(103.7897830362657 551.24780853321) rotate(0 -8.326292424334781 -167.51501419271676)"><path d="M18.43 -310.03 C18.49 -318.45, 18.54 -326.86, 18.6 -335.03 M18.43 -310.03 C18.48 -317.22, 18.53 -324.4, 18.6 -335.03" stroke="#1e1e1e" stroke-width="2" fill="none"></path></g><g transform="translate(103.7897830362657 551.24780853321) rotate(0 -8.326292424334781 -167.51501419271676)"><path d="M2.4 -315.99 C7.85 -322.4, 13.3 -328.81, 18.6 -335.03 M2.4 -315.99 C7.06 -321.46, 11.71 -326.94, 18.6 -335.03" stroke="#1e1e1e" stroke-width="2" fill="none"></path></g></g><mask id="mask-nQ9cXplTH2IXrpeA9qveK"><rect x="0" y="0" fill="#fff" width="257.63863926012755" height="986.2778369186435"></rect><rect x="10" y="380.6109254746789" fill="#000" width="117.078125" height="23" opacity="1"></rect></mask><g transform="translate(10 380.6109254746789) rotate(0 85.35948122189558 3.1218688658142923)"><text x="58.5390625" y="16.900390625" font-family="Helvetica, Segoe UI Emoji" font-size="20px" fill="#1e1e1e" text-anchor="middle" style="white-space: pre;" direction="ltr" dominant-baseline="alphabetic">App Request</text></g><g mask="url(#mask-57uaY_NzVBZa5fObaeQf8)" stroke-linecap="round"><g transform="translate(225.38226611795028 249.87493148061145) rotate(0 36.98629134209011 148.25972134077347)"><path d="M0 0 C12.33 22.99, 67.42 88.51, 73.97 137.93 C80.52 187.35, 45.08 270.09, 39.3 296.52 M0 0 C12.33 22.99, 67.42 88.51, 73.97 137.93 C80.52 187.35, 45.08 270.09, 39.3 296.52" stroke="#1e1e1e" stroke-width="2" fill="none"></path></g><g transform="translate(225.38226611795028 249.87493148061145) rotate(0 36.98629134209011 148.25972134077347)"><path d="M38.05 271.55 C38.32 276.95, 38.59 282.36, 39.3 296.52 M38.05 271.55 C38.36 277.71, 38.67 283.88, 39.3 296.52" stroke="#1e1e1e" stroke-width="2" fill="none"></path></g><g transform="translate(225.38226611795028 249.87493148061145) rotate(0 36.98629134209011 148.25972134077347)"><path d="M54.39 276.59 C51.13 280.9, 47.86 285.22, 39.3 296.52 M54.39 276.59 C50.67 281.51, 46.94 286.43, 39.3 296.52" stroke="#1e1e1e" stroke-width="2" fill="none"></path></g></g><mask id="mask-57uaY_NzVBZa5fObaeQf8"><rect x="0" y="0" fill="#fff" width="399.3548488021305" height="646.3943741621583"></rect><rect x="233.3157863021305" y="376.30481233133617" fill="#000" width="132.078125" height="23" opacity="1"></rect></mask><g transform="translate(233.3157863021305 376.30481233133617) rotate(0 29.45487606032634 21.829840490048753)"><text x="66.0390625" y="16.900390625" font-family="Helvetica, Segoe UI Emoji" font-size="20px" fill="#1e1e1e" text-anchor="middle" style="white-space: pre;" direction="ltr" dominant-baseline="alphabetic">App Response</text></g><g mask="url(#mask-gM7nrtOA24PbRcWd_ANYc)" stroke-linecap="round"><g transform="translate(256.6290895689383 191.8403390470041) rotate(0 162.63588445967963 67.28349742762234)"><path d="M0 0 C54.21 22.43, 271.06 112.14, 325.27 134.57 M0 0 C54.21 22.43, 271.06 112.14, 325.27 134.57" stroke="#1e1e1e" stroke-width="2" fill="none"></path></g><g transform="translate(256.6290895689383 191.8403390470041) rotate(0 162.63588445967963 67.28349742762234)"><path d="M300.3 133.49 C309.67 133.89, 319.04 134.3, 325.27 134.57 M300.3 133.49 C309.55 133.89, 318.81 134.29, 325.27 134.57" stroke="#1e1e1e" stroke-width="2" fill="none"></path></g><g transform="translate(256.6290895689383 191.8403390470041) rotate(0 162.63588445967963 67.28349742762234)"><path d="M306.83 117.69 C313.75 124.02, 320.67 130.35, 325.27 134.57 M306.83 117.69 C313.67 123.94, 320.5 130.2, 325.27 134.57" stroke="#1e1e1e" stroke-width="2" fill="none"></path></g></g><mask id="mask-gM7nrtOA24PbRcWd_ANYc"><rect x="0" y="0" fill="#fff" width="681.9008584882976" height="426.40733390224875"></rect><rect x="352.7200521536179" y="247.62383647462644" fill="#000" width="133.08984375" height="23" opacity="1"></rect></mask><g transform="translate(352.7200521536179 247.62383647462644) rotate(0 66.544921875 11.5)"><text x="66.544921875" y="16.900390625" font-family="Helvetica, Segoe UI Emoji" font-size="20px" fill="#1e1e1e" text-anchor="middle" style="white-space: pre;" direction="ltr" dominant-baseline="alphabetic">Ticket Request</text></g><g mask="url(#mask-CXlPpv5zjoLDCjkpp1eRG)" stroke-linecap="round"><g transform="translate(578.954248121533 368.70677211926613) rotate(0 -169.4260262285832 -69.84046089348791)"><path d="M0 0 C-56.48 -23.28, -282.38 -116.4, -338.85 -139.68 M0 0 C-56.48 -23.28, -282.38 -116.4, -338.85 -139.68" stroke="#1e1e1e" stroke-width="2" fill="none"></path></g><g transform="translate(578.954248121533 368.70677211926613) rotate(0 -169.4260262285832 -69.84046089348791)"><path d="M-313.87 -138.63 C-321.67 -138.96, -329.47 -139.29, -338.85 -139.68 M-313.87 -138.63 C-319.11 -138.85, -324.35 -139.07, -338.85 -139.68" stroke="#1e1e1e" stroke-width="2" fill="none"></path></g><g transform="translate(578.954248121533 368.70677211926613) rotate(0 -169.4260262285832 -69.84046089348791)"><path d="M-320.39 -122.82 C-326.15 -128.08, -331.91 -133.35, -338.85 -139.68 M-320.39 -122.82 C-324.26 -126.36, -328.14 -129.89, -338.85 -139.68" stroke="#1e1e1e" stroke-width="2" fill="none"></path></g></g><mask id="mask-CXlPpv5zjoLDCjkpp1eRG"><rect x="0" y="0" fill="#fff" width="1017.8063005786994" height="608.387693906242"></rect><rect x="335.42177658044983" y="287.36631122577825" fill="#000" width="148.212890625" height="23" opacity="1"></rect></mask><g transform="translate(335.4217765804498 287.3663112257782) rotate(0 74.10644531250003 11.5)"><text x="74.1064453125" y="16.900390625" font-family="Helvetica, Segoe UI Emoji" font-size="20px" fill="#1e1e1e" text-anchor="middle" style="white-space: pre;" direction="ltr" dominant-baseline="alphabetic">Ticket Response</text></g></svg>